<?xml version="1.0" encoding="UTF-8" ?>
<svg
  xmlns="http://www.w3.org/2000/svg"
  xmlns:xlink="http://www.w3.org/1999/xlink"
  width="64px"
  height="64px"
  viewBox="0 0 64 64"
  version="1.1"
>
<g id="surface1">
<path
      style=" stroke:none;fill-rule:nonzero;fill:gray;fill-opacity:1;"
      d="M 51.332031 22.589844 C 50.691406 22.371094 50.050781 22.167969 49.402344 21.980469 C 49.507812 21.542969 49.609375 21.101562 49.699219 20.660156 C 51.160156 13.546875 50.203125 7.816406 46.941406 5.929688 C 43.816406 4.121094 38.691406 6.007812 33.519531 10.515625 C 33.011719 10.960938 32.515625 11.421875 32.027344 11.890625 C 31.703125 11.578125 31.371094 11.273438 31.027344 10.972656 C 25.609375 6.148438 20.175781 4.117188 16.917969 6.011719 C 13.792969 7.824219 12.863281 13.210938 14.179688 19.953125 C 14.3125 20.621094 14.460938 21.28125 14.625 21.945312 C 13.855469 22.164062 13.113281 22.394531 12.402344 22.644531 C 6.058594 24.863281 2 28.339844 2 31.949219 C 2 35.675781 6.355469 39.414062 12.972656 41.679688 C 13.507812 41.863281 14.050781 42.03125 14.597656 42.1875 C 14.417969 42.894531 14.261719 43.613281 14.125 44.335938 C 12.875 50.960938 13.851562 56.21875 16.96875 58.019531 C 20.191406 59.882812 25.59375 57.96875 30.859375 53.359375 C 31.277344 52.992188 31.695312 52.605469 32.109375 52.203125 C 32.636719 52.710938 33.179688 53.203125 33.734375 53.683594 C 38.835938 58.082031 43.871094 59.859375 46.984375 58.050781 C 50.203125 56.183594 51.25 50.53125 49.890625 43.660156 C 49.789062 43.132812 49.667969 42.597656 49.53125 42.050781 C 49.914062 41.9375 50.285156 41.824219 50.648438 41.703125 C 57.523438 39.417969 62.003906 35.726562 62.003906 31.953125 C 62 28.328125 57.8125 24.828125 51.332031 22.589844 Z M 35.207031 12.453125 C 39.636719 8.589844 43.777344 7.066406 45.664062 8.15625 C 47.671875 9.316406 48.453125 14 47.191406 20.140625 C 47.109375 20.542969 47.019531 20.941406 46.921875 21.335938 C 44.277344 20.738281 41.597656 20.3125 38.898438 20.066406 C 37.351562 17.839844 35.660156 15.722656 33.828125 13.722656 C 34.277344 13.289062 34.734375 12.867188 35.203125 12.453125 Z M 19.714844 35.03125 C 20.257812 36.082031 20.824219 37.117188 21.417969 38.140625 C 22.019531 39.1875 22.648438 40.21875 23.300781 41.230469 C 21.445312 41.03125 19.597656 40.730469 17.769531 40.339844 C 18.300781 38.625 18.953125 36.84375 19.714844 35.03125 Z M 19.714844 28.988281 C 18.964844 27.214844 18.332031 25.472656 17.808594 23.785156 C 19.523438 23.402344 21.347656 23.089844 23.25 22.851562 C 22.613281 23.847656 22 24.855469 21.410156 25.878906 C 20.820312 26.902344 20.253906 27.941406 19.710938 28.988281 Z M 21.078125 32.011719 C 21.867188 30.363281 22.71875 28.746094 23.632812 27.164062 C 24.542969 25.582031 25.511719 24.035156 26.539062 22.523438 C 28.324219 22.386719 30.15625 22.316406 32.003906 22.316406 C 33.851562 22.316406 35.695312 22.386719 37.476562 22.523438 C 38.496094 24.03125 39.457031 25.574219 40.367188 27.148438 C 41.277344 28.722656 42.140625 30.332031 42.953125 31.972656 C 42.152344 33.628906 41.292969 35.25 40.375 36.839844 C 39.464844 38.425781 38.507812 39.976562 37.5 41.496094 C 35.71875 41.621094 33.875 41.691406 32 41.691406 C 30.125 41.691406 28.316406 41.632812 26.566406 41.515625 C 25.53125 40 24.554688 38.449219 23.636719 36.855469 C 22.714844 35.265625 21.863281 33.648438 21.074219 32.011719 Z M 42.59375 38.125 C 43.199219 37.078125 43.777344 36.015625 44.332031 34.9375 C 45.09375 36.667969 45.769531 38.433594 46.347656 40.230469 C 44.5 40.644531 42.632812 40.964844 40.75 41.183594 C 41.386719 40.175781 42 39.15625 42.59375 38.125 Z M 44.308594 28.992188 C 43.753906 27.9375 43.179688 26.894531 42.582031 25.867188 C 42 24.851562 41.390625 23.847656 40.757812 22.859375 C 42.671875 23.101562 44.507812 23.421875 46.230469 23.816406 C 45.675781 25.574219 45.035156 27.300781 44.308594 28.992188 Z M 32.027344 15.558594 C 33.277344 16.925781 34.457031 18.351562 35.558594 19.832031 C 33.199219 19.71875 30.832031 19.71875 28.46875 19.832031 C 29.632812 18.289062 30.828125 16.859375 32.027344 15.558594 Z M 18.207031 8.234375 C 20.214844 7.066406 24.652344 8.734375 29.332031 12.890625 C 29.632812 13.15625 29.933594 13.4375 30.234375 13.726562 C 28.390625 15.722656 26.683594 17.839844 25.125 20.0625 C 22.429688 20.304688 19.757812 20.722656 17.117188 21.3125 C 16.964844 20.699219 16.828125 20.082031 16.703125 19.460938 C 15.574219 13.683594 16.324219 9.328125 18.207031 8.234375 Z M 15.28125 39.714844 C 14.78125 39.570312 14.289062 39.417969 13.800781 39.25 C 10.875 38.25 8.457031 36.945312 6.800781 35.523438 C 5.316406 34.25 4.5625 32.980469 4.5625 31.949219 C 4.5625 29.761719 7.820312 26.96875 13.253906 25.074219 C 13.933594 24.835938 14.625 24.621094 15.316406 24.421875 C 16.125 27.015625 17.101562 29.550781 18.242188 32.015625 C 17.085938 34.515625 16.097656 37.085938 15.28125 39.714844 Z M 29.171875 51.421875 C 26.84375 53.460938 24.511719 54.910156 22.453125 55.636719 C 20.609375 56.292969 19.136719 56.308594 18.246094 55.796875 C 16.355469 54.703125 15.566406 50.480469 16.640625 44.8125 C 16.769531 44.148438 16.914062 43.480469 17.078125 42.8125 C 19.746094 43.386719 22.445312 43.78125 25.164062 43.988281 C 26.742188 46.222656 28.460938 48.351562 30.316406 50.363281 C 29.941406 50.730469 29.5625 51.082031 29.171875 51.421875 Z M 32.101562 48.519531 C 30.886719 47.207031 29.671875 45.753906 28.488281 44.191406 C 29.640625 44.234375 30.808594 44.257812 32 44.257812 C 33.222656 44.257812 34.433594 44.230469 35.625 44.175781 C 34.523438 45.683594 33.347656 47.132812 32.101562 48.519531 Z M 47.664062 52.09375 C 47.308594 54.023438 46.589844 55.3125 45.699219 55.828125 C 43.808594 56.921875 39.765625 55.496094 35.40625 51.734375 C 34.90625 51.304688 34.40625 50.84375 33.894531 50.359375 C 35.714844 48.34375 37.394531 46.203125 38.925781 43.960938 C 41.660156 43.730469 44.375 43.308594 47.050781 42.703125 C 47.171875 43.199219 47.28125 43.683594 47.375 44.160156 C 47.976562 47.199219 48.0625 49.945312 47.664062 52.09375 Z M 49.839844 39.265625 C 49.511719 39.371094 49.175781 39.476562 48.832031 39.578125 C 47.992188 36.976562 46.976562 34.429688 45.792969 31.960938 C 46.933594 29.527344 47.910156 27.019531 48.714844 24.453125 C 49.328125 24.632812 49.921875 24.820312 50.496094 25.019531 C 56.050781 26.933594 59.4375 29.769531 59.4375 31.949219 C 59.4375 34.273438 55.777344 37.292969 49.839844 39.265625 Z M 49.839844 39.265625 "
    />
<path
      style=" stroke:none;fill-rule:nonzero;fill:gray;fill-opacity:1;"
      d="M 32 37.320312 C 34.175781 37.324219 36.140625 36.019531 36.976562 34.011719 C 37.816406 32.003906 37.359375 29.691406 35.824219 28.148438 C 34.289062 26.609375 31.976562 26.144531 29.964844 26.976562 C 27.953125 27.808594 26.640625 29.769531 26.640625 31.945312 C 26.636719 34.90625 29.035156 37.316406 32 37.320312 Z M 32 37.320312 "
    />
</g>
</svg>
