<?xml version="1.0" encoding="UTF-8" ?>
<svg
  xmlns="http://www.w3.org/2000/svg"
  xmlns:xlink="http://www.w3.org/1999/xlink"
  width="64px"
  height="64px"
  viewBox="0 0 64 64"
  version="1.1"
>
<g id="surface1">
<path
      style=" stroke:none;fill-rule:nonzero;fill:gray;fill-opacity:1;"
      d="M 31.328125 14.496094 C 20.992188 14.824219 17.921875 22.207031 17.214844 26.207031 C 18.132812 24.726562 21.023438 21.472656 25.28125 21.472656 C 30.238281 21.472656 34.015625 27.007812 36.320312 28.734375 C 39.121094 30.835938 44.742188 33.605469 52.128906 31.359375 C 58.015625 29.566406 60.746094 23.316406 61.34375 20.351562 C 58.496094 24.222656 54.175781 26.550781 48.832031 23.808594 C 45.152344 21.921875 42.398438 14.144531 31.328125 14.496094 Z M 31.328125 14.496094 "
    />
<path
      style=" stroke:none;fill-rule:nonzero;fill:gray;fill-opacity:1;"
      d="M 16.703125 32.0625 C 6.367188 32.390625 3.296875 39.777344 2.59375 43.777344 C 3.507812 42.292969 6.398438 39.039062 10.65625 39.039062 C 15.617188 39.039062 19.390625 44.574219 21.695312 46.304688 C 24.496094 48.402344 30.121094 51.175781 37.503906 48.929688 C 43.390625 47.136719 46.121094 40.886719 46.71875 37.921875 C 43.871094 41.792969 39.550781 44.117188 34.207031 41.375 C 30.527344 39.488281 27.777344 31.710938 16.703125 32.0625 Z M 16.703125 32.0625 "
    />
</g>
</svg>
